# xmcd
#
# Track frame offsets:
#	150
#	24341
#	40451
#	63954
#	85297
#	100920
#	130006
#	153446
#	178558
#	193160
#	214479
#
# Disc length: 3124 seconds
#
# Revision: 0
# Processed by: cddbd v1.5.2PL0 Copyright (c) Steve Scherf et al.
# Submitted via: dBpowerAMP V4.0
#
DISCID=950c320b
DTITLE=Gurf Morlix - Diamonds To Dust
DYEAR=1900
DGENRE=Country
TTITLE0=Killin' Time In Texas
TTITLE1=Madalyn's Bones
TTITLE2=Food, Water, Shelter and Love
TTITLE3=Blanket
TTITLE4=Diamonds To Dust
TTITLE5=With God On Our Side
TTITLE6=I've Got A Passion
TTITLE7=Windows Open, Windows Closw
TTITLE8=Up Against It
TTITLE9=Worth Dyin' For
TTITLE10=Need You Now
EXTD=
EXTT0=
EXTT1=
EXTT2=
EXTT3=
EXTT4=
EXTT5=
EXTT6=
EXTT7=
EXTT8=
EXTT9=
EXTT10=
PLAYORDER=
